<?xml version="1.0" encoding="UTF-8" standalone="no"?>
<!DOCTYPE svg PUBLIC "-//W3C//DTD SVG 1.1//EN" "http://www.w3.org/Graphics/SVG/1.1/DTD/svg11.dtd">
<svg width="100%" height="100%" viewBox="0 0 371 312" version="1.1" xmlns="http://www.w3.org/2000/svg" xmlns:xlink="http://www.w3.org/1999/xlink" xml:space="preserve" xmlns:serif="http://www.serif.com/" style="fill-rule:evenodd;clip-rule:evenodd;stroke-linecap:round;stroke-linejoin:round;stroke-miterlimit:1.5;">
    <g transform="matrix(0.999443,0,0,1.00017,0.0135325,-0.0050176)">
        <path d="M39.186,41.547C39.774,34.372 45.881,28.916 53.076,29.136C110.864,30.906 343.994,38.047 343.994,38.047C343.994,38.047 344.747,38.101 345.861,38.182C351.248,38.574 355.582,42.765 356.155,48.135C356.363,50.082 356.52,51.559 356.52,51.559L350.819,188.557L349.558,186.838L348.227,250.822L368.928,225.059L348.234,184.226C348.234,184.226 348.228,244.745 348.227,250.4C348.227,250.637 348.042,250.834 347.805,250.849C345.19,251.01 331.294,251.869 331.294,251.869C331.294,251.869 96.568,239.957 36.902,236.93C33.317,236.748 29.959,235.121 27.595,232.421C25.231,229.721 24.062,226.177 24.355,222.6C27.46,184.695 36.165,78.432 39.186,41.547Z" style="fill:rgb(137,79,3);stroke:rgb(197,115,6);stroke-opacity:0.827451;stroke-width:1px;"/>
    </g>
    <path d="M349.052,222.725C349.052,222.81 368.268,225.326 349.999,222.853C348.927,222.708 352.306,223.176 353.396,223.321C368.52,225.323 349.282,222.805 357.521,223.858C357.801,223.894 368.671,224.918 358.447,223.883C349.126,222.941 349.276,222.828 362.428,224.453C368.498,225.204 368.379,224.972 363.587,224.453C349.05,222.879 368.457,225.194 368.385,225.195" style="fill:none;stroke:rgb(197,115,6);stroke-opacity:0.827451;stroke-width:1px;"/>
    <g transform="matrix(0.000121741,1,-1,0.000121741,533.444,-342.077)">
        <path d="M381.058,191.765C381.174,188.212 382.704,184.853 385.307,182.432C387.911,180.011 391.373,178.73 394.925,178.873C433.151,180.407 542.263,184.785 580.541,186.321C584.1,186.463 587.455,188.024 589.857,190.655C592.259,193.285 593.509,196.767 593.329,200.325C590.672,252.717 581.04,442.691 578.361,495.535C578.178,499.137 576.545,502.511 573.833,504.889C571.122,507.267 567.563,508.445 563.968,508.156C526.119,505.109 420.492,496.605 383.892,493.658C376.795,493.086 371.397,487.042 371.63,479.925C373.281,429.461 379.365,243.496 381.058,191.765Z" style="fill:rgb(89,89,89);stroke:black;stroke-width:1px;"/>
        <path d="M381.058,191.765C381.174,188.212 382.704,184.853 385.307,182.432C387.911,180.011 391.373,178.73 394.925,178.873C433.151,180.407 542.263,184.785 580.541,186.321C584.1,186.463 587.455,188.024 589.857,190.655C592.259,193.285 593.509,196.767 593.329,200.325C590.672,252.717 581.04,442.691 578.361,495.535C578.178,499.137 576.545,502.511 573.833,504.889C571.122,507.267 567.563,508.445 563.968,508.156C526.119,505.109 420.492,496.605 383.892,493.658C376.795,493.086 371.397,487.042 371.63,479.925C373.281,429.461 379.365,243.496 381.058,191.765Z" style="fill:rgb(89,89,89);stroke:black;stroke-width:1px;"/>
    </g>
    <g transform="matrix(0.000113172,0.93029,-0.955413,0.000116397,519.28,-307.433)">
        <path d="M378.243,191.764C378.374,188.041 380.026,184.524 382.834,181.994C385.641,179.465 389.37,178.132 393.191,178.292C431.937,179.918 537.809,184.36 576.57,185.987C580.393,186.147 583.992,187.789 586.566,190.547C589.139,193.306 590.473,196.951 590.271,200.672C587.394,253.698 577.227,441.072 574.319,494.674C574.114,498.453 572.342,501.99 569.409,504.473C566.475,506.957 562.632,508.174 558.76,507.847C520.424,504.607 418.2,495.967 381.261,492.845C373.662,492.203 367.909,485.88 368.17,478.458C369.961,427.482 376.402,244.16 378.243,191.764Z" style="stroke:black;stroke-width:1.06px;"/>
        <path d="M378.243,191.764C378.374,188.041 380.026,184.524 382.834,181.994C385.641,179.465 389.37,178.132 393.191,178.292C431.937,179.918 537.809,184.36 576.57,185.987C580.393,186.147 583.992,187.789 586.566,190.547C589.139,193.306 590.473,196.951 590.271,200.672C587.394,253.698 577.227,441.072 574.319,494.674C574.114,498.453 572.342,501.99 569.409,504.473C566.475,506.957 562.632,508.174 558.76,507.847C520.424,504.607 418.2,495.967 381.261,492.845C373.662,492.203 367.909,485.88 368.17,478.458C369.961,427.482 376.402,244.16 378.243,191.764Z" style="stroke:black;stroke-width:1.06px;"/>
    </g>
</svg>
